{
  "source": "C:\\Users\\Peter\\Desktop\\stuff\\MIUN\\quantitative_research\\video_compression\\videos\\BVI-HD\\RockWater_1920x1080_30fps.mp4",
  "output": "C:\\Users\\Peter\\Desktop\\stuff\\MIUN\\quantitative_research\\video_compression\\compressed_videos\\BVI-HD\\h264\\12\\RockWater_1920x1080_30fps_h264.mp4",
  "codec": "h264",
  "ok": "Input #0, mov,mp4,m4a,3gp,3g2,mj2, from 'C:\\Users\\Peter\\Desktop\\stuff\\MIUN\\quantitative_research\\video_compression\\videos\\BVI-HD\\RockWater_1920x1080_30fps.mp4':\n  Metadata:\n    major_brand     : isom\n    minor_version   : 512\n    compatible_brands: isomiso2avc1mp41\n    encoder         : Lavf54.28.101\n  Duration: 00:00:05.00, start: 0.000000, bitrate: 245943 kb/s\n  Stream #0:0[0x1](und): Video: h264 (High 4:4:4 Predictive) (avc1 / 0x31637661), yuv420p(progressive), 1920x1080, 245940 kb/s, 30 fps, 30 tbr, 30 tbn (default)\n    Metadata:\n      handler_name    : VideoHandler\n      vendor_id       : [0][0][0][0]\n[out#0/mp4 @ 000002b313ae1580] Codec AVOption b:a (set bitrate (in bits/s)) has not been used for any stream. The most likely reason is either wrong type (e.g. a video option with no video streams) or that it is a private option of some decoder which was not actually used for any stream.\nStream mapping:\n  Stream #0:0 -> #0:0 (h264 (native) -> h264 (libx264))\nPress [q] to stop, [?] for help\n[libx264 @ 000002b3143d47c0] using cpu capabilities: MMX2 SSE2Fast SSSE3 SSE4.2 AVX FMA3 BMI2 AVX2\n[libx264 @ 000002b3143d47c0] profile High, level 5.0, 4:2:0, 8-bit\n[libx264 @ 000002b3143d47c0] 264 - core 165 r3222 b35605a - H.264/MPEG-4 AVC codec - Copyleft 2003-2025 - http://www.videolan.org/x264.html - options: cabac=1 ref=5 deblock=1:0:0 analyse=0x3:0x113 me=hex subme=8 psy=1 psy_rd=1.00:0.00 mixed_ref=1 me_range=16 chroma_me=1 trellis=2 8x8dct=1 cqm=0 deadzone=21,11 fast_pskip=1 chroma_qp_offset=-2 threads=18 lookahead_threads=3 sliced_threads=0 nr=0 decimate=1 interlaced=0 bluray_compat=0 constrained_intra=0 bframes=3 b_pyramid=2 b_adapt=1 b_bias=0 direct=3 weightb=1 open_gop=0 weightp=2 keyint=250 keyint_min=25 scenecut=40 intra_refresh=0 rc_lookahead=50 rc=cbr mbtree=1 bitrate=12000 ratetol=1.0 qcomp=0.60 qpmin=0 qpmax=69 qpstep=4 vbv_maxrate=12000 vbv_bufsize=12000 nal_hrd=none filler=0 ip_ratio=1.40 aq=1:1.00\nOutput #0, mp4, to 'C:\\Users\\Peter\\Desktop\\stuff\\MIUN\\quantitative_research\\video_compression\\compressed_videos\\BVI-HD\\h264\\12\\RockWater_1920x1080_30fps_h264.mp4':\n  Metadata:\n    major_brand     : isom\n    minor_version   : 512\n    compatible_brands: isomiso2avc1mp41\n    encoder         : Lavf62.3.100\n  Stream #0:0(und): Video: h264 (avc1 / 0x31637661), yuv420p(tv, progressive), 1920x1080, q=2-31, 12000 kb/s, 30 fps, 15360 tbn (default)\n    Metadata:\n      encoder         : Lavc62.11.100 libx264\n      handler_name    : VideoHandler\n      vendor_id       : [0][0][0][0]\n    Side data:\n      cpb: bitrate max/min/avg: 12000000/0/12000000 buffer size: 12000000 vbv_delay: N/A\nframe=    0 fps=0.0 q=0.0 size=       0KiB time=N/A bitrate=N/A speed=N/A elapsed=0:00:00.51    \nframe=    0 fps=0.0 q=0.0 size=       0KiB time=N/A bitrate=N/A speed=N/A elapsed=0:00:01.11    \nframe=    0 fps=0.0 q=0.0 size=       0KiB time=N/A bitrate=N/A speed=N/A elapsed=0:00:01.67    \nframe=    4 fps=1.8 q=30.0 size=       0KiB time=00:00:00.03 bitrate=  11.5kbits/s speed=0.0151x elapsed=0:00:02.21    \nframe=   11 fps=3.9 q=30.0 size=     512KiB time=00:00:00.30 bitrate=13982.3kbits/s speed=0.106x elapsed=0:00:02.84    \nframe=   17 fps=4.9 q=30.0 size=     768KiB time=00:00:00.43 bitrate=14519.6kbits/s speed=0.126x elapsed=0:00:03.43    \nframe=   31 fps=7.7 q=30.0 size=    1536KiB time=00:00:00.96 bitrate=13017.2kbits/s speed=0.239x elapsed=0:00:04.04    \nframe=   42 fps=9.0 q=30.0 size=    1792KiB time=00:00:01.26 bitrate=11589.8kbits/s speed=0.272x elapsed=0:00:04.66    \nframe=   49 fps=9.3 q=29.0 size=    2304KiB time=00:00:01.56 bitrate=12047.7kbits/s speed=0.298x elapsed=0:00:05.25    \nframe=   69 fps= 12 q=29.0 size=    3072KiB time=00:00:02.23 bitrate=11268.5kbits/s speed=0.386x elapsed=0:00:05.78    \nframe=   73 fps= 12 q=29.0 size=    3328KiB time=00:00:02.36 bitrate=11519.7kbits/s speed=0.374x elapsed=0:00:06.32    \nframe=   89 fps= 13 q=30.0 size=    3840KiB time=00:00:02.90 bitrate=10847.5kbits/s speed=0.419x elapsed=0:00:06.91    \nframe=   97 fps= 13 q=30.0 size=    4352KiB time=00:00:03.10 bitrate=11500.6kbits/s speed=0.414x elapsed=0:00:07.48    \nframe=  110 fps= 14 q=30.0 size=    4864KiB time=00:00:03.56 bitrate=11171.9kbits/s speed=0.443x elapsed=0:00:08.04    \nframe=  121 fps= 14 q=28.0 size=    5632KiB time=00:00:03.96 bitrate=11631.4kbits/s speed=0.462x elapsed=0:00:08.58    \nframe=  137 fps= 15 q=-1.0 size=    6400KiB time=00:00:04.50 bitrate=11650.9kbits/s speed=0.494x elapsed=0:00:09.11    \nframe=  149 fps= 15 q=-1.0 size=    6912KiB time=00:00:04.90 bitrate=11555.8kbits/s speed=0.507x elapsed=0:00:09.66    \n[mp4 @ 000002b313ae1680] Starting second pass: moving the moov atom to the beginning of the file\n[out#0/mp4 @ 000002b313ae1580] video:7097KiB audio:0KiB subtitle:0KiB other streams:0KiB global headers:0KiB muxing overhead: 0.037743%\nframe=  150 fps= 15 q=-1.0 Lsize=    7100KiB time=00:00:04.93 bitrate=11789.7kbits/s speed=0.509x elapsed=0:00:09.68    \n[libx264 @ 000002b3143d47c0] frame I:1     Avg QP:25.64  size:118420\n[libx264 @ 000002b3143d47c0] frame P:40    Avg QP:27.50  size: 76674\n[libx264 @ 000002b3143d47c0] frame B:109   Avg QP:29.86  size: 37444\n[libx264 @ 000002b3143d47c0] consecutive B-frames:  1.3%  4.0%  4.0% 90.7%\n[libx264 @ 000002b3143d47c0] mb I  I16..4: 10.1% 78.1% 11.7%\n[libx264 @ 000002b3143d47c0] mb P  I16..4:  9.4% 26.9%  2.1%  P16..4: 41.8% 12.8%  5.4%  0.0%  0.0%    skip: 1.6%\n[libx264 @ 000002b3143d47c0] mb B  I16..4:  2.6%  9.3%  1.2%  B16..8: 42.5% 16.3%  1.8%  direct: 4.9%  skip:21.5%  L0:50.1% L1:44.9% BI: 4.9%\n[libx264 @ 000002b3143d47c0] 8x8 transform intra:70.9% inter:78.8%\n[libx264 @ 000002b3143d47c0] direct mvs  spatial:91.7% temporal:8.3%\n[libx264 @ 000002b3143d47c0] coded y,uvDC,uvAC intra: 56.5% 21.8% 0.1% inter: 33.6% 15.6% 0.0%\n[libx264 @ 000002b3143d47c0] i16 v,h,dc,p:  3% 44%  4% 50%\n[libx264 @ 000002b3143d47c0] i8 v,h,dc,ddl,ddr,vr,hd,vl,hu:  5% 23%  8%  6%  9%  5% 21%  6% 16%\n[libx264 @ 000002b3143d47c0] i4 v,h,dc,ddl,ddr,vr,hd,vl,hu:  8% 20% 15%  7%  9%  6% 15%  7% 14%\n[libx264 @ 000002b3143d47c0] i8c dc,h,v,p: 69% 26%  5%  0%\n[libx264 @ 000002b3143d47c0] Weighted P-Frames: Y:10.0% UV:0.0%\n[libx264 @ 000002b3143d47c0] ref P L0: 44.8% 11.2% 20.5% 12.8% 10.0%  0.6%\n[libx264 @ 000002b3143d47c0] ref B L0: 67.9% 18.1% 10.1%  3.9%\n[libx264 @ 000002b3143d47c0] ref B L1: 92.9%  7.1%\n[libx264 @ 000002b3143d47c0] kb/s:11626.92\n",
  "seconds": 10.097859621047974,
  "probe_out": {}
}